<mxfile host="app.diagrams.net" modified="2020-12-13T05:19:41.129Z" agent="5.0 (X11; Linux x86_64) AppleWebKit/537.36 (KHTML, like Gecko) Chrome/87.0.4280.66 Safari/537.36" etag="2zQqF7OOe5T91EpDFyu8" version="13.11.0" type="github" pages="2">
  <diagram id="HzLn4FYFpN_FvYp7WBm2" name="Arquitectura General">
    <mxGraphModel dx="1570" dy="1045" grid="1" gridSize="10" guides="1" tooltips="1" connect="1" arrows="1" fold="1" page="1" pageScale="1" pageWidth="1169" pageHeight="827" math="0" shadow="0">
      <root>
        <mxCell id="0" />
        <mxCell id="1" parent="0" />
        <mxCell id="-Fwa0vPbUQEvVlFkUtLG-30" value="AWS Cloud" style="points=[[0,0],[0.25,0],[0.5,0],[0.75,0],[1,0],[1,0.25],[1,0.5],[1,0.75],[1,1],[0.75,1],[0.5,1],[0.25,1],[0,1],[0,0.75],[0,0.5],[0,0.25]];outlineConnect=0;gradientColor=none;html=1;whiteSpace=wrap;fontSize=12;fontStyle=0;shape=mxgraph.aws4.group;grIcon=mxgraph.aws4.group_aws_cloud_alt;strokeColor=#232F3E;fillColor=none;verticalAlign=top;align=left;spacingLeft=30;fontColor=#232F3E;dashed=0;" parent="1" vertex="1">
          <mxGeometry x="110" y="112" width="300" height="270" as="geometry" />
        </mxCell>
        <mxCell id="-Fwa0vPbUQEvVlFkUtLG-2" value="" style="rounded=1;whiteSpace=wrap;html=1;" parent="1" vertex="1">
          <mxGeometry x="40" y="480" width="1090" height="270" as="geometry" />
        </mxCell>
        <mxCell id="-Fwa0vPbUQEvVlFkUtLG-1" value="" style="outlineConnect=0;fontColor=#232F3E;gradientColor=#F78E04;gradientDirection=north;fillColor=#D05C17;strokeColor=#ffffff;dashed=0;verticalLabelPosition=bottom;verticalAlign=top;align=center;html=1;fontSize=12;fontStyle=0;aspect=fixed;shape=mxgraph.aws4.resourceIcon;resIcon=mxgraph.aws4.managed_blockchain;" parent="1" vertex="1">
          <mxGeometry x="120" y="480" width="38" height="38" as="geometry" />
        </mxCell>
        <mxCell id="-Fwa0vPbUQEvVlFkUtLG-3" value="Red Fabric en Servicio AWS Managed Blockchain" style="text;html=1;strokeColor=none;fillColor=none;align=center;verticalAlign=middle;whiteSpace=wrap;rounded=0;fontStyle=1" parent="1" vertex="1">
          <mxGeometry x="150" y="489" width="322" height="20" as="geometry" />
        </mxCell>
        <mxCell id="-Fwa0vPbUQEvVlFkUtLG-4" value="" style="rounded=1;whiteSpace=wrap;html=1;dashed=1;" parent="1" vertex="1">
          <mxGeometry x="60" y="520" width="1050" height="210" as="geometry" />
        </mxCell>
        <mxCell id="-Fwa0vPbUQEvVlFkUtLG-5" value="CowTracker Channel" style="text;html=1;strokeColor=none;fillColor=none;align=left;verticalAlign=middle;whiteSpace=wrap;rounded=0;dashed=1;" parent="1" vertex="1">
          <mxGeometry x="521" y="525" width="149" height="20" as="geometry" />
        </mxCell>
        <mxCell id="-Fwa0vPbUQEvVlFkUtLG-11" value="" style="group" parent="1" vertex="1" connectable="0">
          <mxGeometry x="90" y="560" width="170" height="110" as="geometry" />
        </mxCell>
        <mxCell id="-Fwa0vPbUQEvVlFkUtLG-6" value="" style="rounded=0;whiteSpace=wrap;html=1;align=left;" parent="-Fwa0vPbUQEvVlFkUtLG-11" vertex="1">
          <mxGeometry width="170" height="110" as="geometry" />
        </mxCell>
        <mxCell id="-Fwa0vPbUQEvVlFkUtLG-7" value="Retail MSP" style="text;html=1;strokeColor=none;fillColor=none;align=center;verticalAlign=middle;whiteSpace=wrap;rounded=0;" parent="-Fwa0vPbUQEvVlFkUtLG-11" vertex="1">
          <mxGeometry x="51.44736842105263" width="67.10526315789474" height="20" as="geometry" />
        </mxCell>
        <mxCell id="-Fwa0vPbUQEvVlFkUtLG-8" value="Fabric CA Authority" style="rounded=0;whiteSpace=wrap;html=1;align=center;fillColor=#cdeb8b;strokeColor=#36393d;" parent="-Fwa0vPbUQEvVlFkUtLG-11" vertex="1">
          <mxGeometry x="31.315789473684212" y="31" width="107.36842105263158" height="30" as="geometry" />
        </mxCell>
        <mxCell id="-Fwa0vPbUQEvVlFkUtLG-9" value="Peer Node" style="rounded=0;whiteSpace=wrap;html=1;align=center;fillColor=#cdeb8b;strokeColor=#36393d;" parent="-Fwa0vPbUQEvVlFkUtLG-11" vertex="1">
          <mxGeometry x="31.315789473684212" y="68" width="107.36842105263158" height="30" as="geometry" />
        </mxCell>
        <mxCell id="-Fwa0vPbUQEvVlFkUtLG-13" value="" style="group" parent="1" vertex="1" connectable="0">
          <mxGeometry x="300" y="560" width="170" height="110" as="geometry" />
        </mxCell>
        <mxCell id="-Fwa0vPbUQEvVlFkUtLG-14" value="" style="rounded=0;whiteSpace=wrap;html=1;align=left;" parent="-Fwa0vPbUQEvVlFkUtLG-13" vertex="1">
          <mxGeometry width="170" height="110" as="geometry" />
        </mxCell>
        <mxCell id="-Fwa0vPbUQEvVlFkUtLG-15" value="Planta MSP" style="text;html=1;strokeColor=none;fillColor=none;align=center;verticalAlign=middle;whiteSpace=wrap;rounded=0;" parent="-Fwa0vPbUQEvVlFkUtLG-13" vertex="1">
          <mxGeometry x="39.14473684210526" width="91.71052631578948" height="20" as="geometry" />
        </mxCell>
        <mxCell id="-Fwa0vPbUQEvVlFkUtLG-16" value="Fabric CA Authority" style="rounded=0;whiteSpace=wrap;html=1;align=center;fillColor=#cdeb8b;strokeColor=#36393d;" parent="-Fwa0vPbUQEvVlFkUtLG-13" vertex="1">
          <mxGeometry x="31.315789473684212" y="31" width="107.36842105263158" height="30" as="geometry" />
        </mxCell>
        <mxCell id="-Fwa0vPbUQEvVlFkUtLG-17" value="Peer Node" style="rounded=0;whiteSpace=wrap;html=1;align=center;fillColor=#cdeb8b;strokeColor=#36393d;" parent="-Fwa0vPbUQEvVlFkUtLG-13" vertex="1">
          <mxGeometry x="31.315789473684212" y="68" width="107.36842105263158" height="30" as="geometry" />
        </mxCell>
        <mxCell id="-Fwa0vPbUQEvVlFkUtLG-18" value="" style="group" parent="1" vertex="1" connectable="0">
          <mxGeometry x="660" y="560" width="170" height="110" as="geometry" />
        </mxCell>
        <mxCell id="-Fwa0vPbUQEvVlFkUtLG-19" value="" style="rounded=0;whiteSpace=wrap;html=1;align=left;" parent="-Fwa0vPbUQEvVlFkUtLG-18" vertex="1">
          <mxGeometry x="34" width="170" height="110" as="geometry" />
        </mxCell>
        <mxCell id="-Fwa0vPbUQEvVlFkUtLG-20" value="Matadero MSP" style="text;html=1;strokeColor=none;fillColor=none;align=center;verticalAlign=middle;whiteSpace=wrap;rounded=0;" parent="-Fwa0vPbUQEvVlFkUtLG-18" vertex="1">
          <mxGeometry x="73.14473684210526" width="91.71052631578948" height="20" as="geometry" />
        </mxCell>
        <mxCell id="-Fwa0vPbUQEvVlFkUtLG-21" value="Fabric CA Authority" style="rounded=0;whiteSpace=wrap;html=1;align=center;fillColor=#cdeb8b;strokeColor=#36393d;" parent="-Fwa0vPbUQEvVlFkUtLG-18" vertex="1">
          <mxGeometry x="65.3157894736842" y="31" width="107.36842105263158" height="30" as="geometry" />
        </mxCell>
        <mxCell id="-Fwa0vPbUQEvVlFkUtLG-22" value="Peer Node" style="rounded=0;whiteSpace=wrap;html=1;align=center;fillColor=#cdeb8b;strokeColor=#36393d;" parent="-Fwa0vPbUQEvVlFkUtLG-18" vertex="1">
          <mxGeometry x="65.3157894736842" y="68" width="107.36842105263158" height="30" as="geometry" />
        </mxCell>
        <mxCell id="s21eSt1wn9aEw8yrep5h-1" value="" style="group" vertex="1" connectable="0" parent="-Fwa0vPbUQEvVlFkUtLG-18">
          <mxGeometry x="-160.1578947368421" width="170" height="110" as="geometry" />
        </mxCell>
        <mxCell id="s21eSt1wn9aEw8yrep5h-2" value="" style="rounded=0;whiteSpace=wrap;html=1;align=left;" vertex="1" parent="s21eSt1wn9aEw8yrep5h-1">
          <mxGeometry width="170" height="110" as="geometry" />
        </mxCell>
        <mxCell id="s21eSt1wn9aEw8yrep5h-3" value="Criadero MSP" style="text;html=1;strokeColor=none;fillColor=none;align=center;verticalAlign=middle;whiteSpace=wrap;rounded=0;" vertex="1" parent="s21eSt1wn9aEw8yrep5h-1">
          <mxGeometry x="39.14473684210526" width="91.71052631578948" height="20" as="geometry" />
        </mxCell>
        <mxCell id="s21eSt1wn9aEw8yrep5h-4" value="Fabric CA Authority" style="rounded=0;whiteSpace=wrap;html=1;align=center;fillColor=#cdeb8b;strokeColor=#36393d;" vertex="1" parent="s21eSt1wn9aEw8yrep5h-1">
          <mxGeometry x="31.315789473684212" y="31" width="107.36842105263158" height="30" as="geometry" />
        </mxCell>
        <mxCell id="s21eSt1wn9aEw8yrep5h-5" value="Peer Node" style="rounded=0;whiteSpace=wrap;html=1;align=center;fillColor=#cdeb8b;strokeColor=#36393d;" vertex="1" parent="s21eSt1wn9aEw8yrep5h-1">
          <mxGeometry x="31.315789473684212" y="68" width="107.36842105263158" height="30" as="geometry" />
        </mxCell>
        <mxCell id="-Fwa0vPbUQEvVlFkUtLG-23" value="HyperLedger Fabric Orderer Service" style="rounded=0;whiteSpace=wrap;html=1;align=center;fillColor=#cdeb8b;strokeColor=#36393d;" parent="1" vertex="1">
          <mxGeometry x="90" y="680" width="970" height="30" as="geometry" />
        </mxCell>
        <mxCell id="-Fwa0vPbUQEvVlFkUtLG-29" value="Infraestructura Retail" style="text;html=1;strokeColor=none;fillColor=none;align=left;verticalAlign=middle;whiteSpace=wrap;rounded=0;fontStyle=1" parent="1" vertex="1">
          <mxGeometry x="110" y="92" width="210" height="20" as="geometry" />
        </mxCell>
        <mxCell id="-Fwa0vPbUQEvVlFkUtLG-33" value="Corporate data center" style="points=[[0,0],[0.25,0],[0.5,0],[0.75,0],[1,0],[1,0.25],[1,0.5],[1,0.75],[1,1],[0.75,1],[0.5,1],[0.25,1],[0,1],[0,0.75],[0,0.5],[0,0.25]];outlineConnect=0;gradientColor=none;html=1;whiteSpace=wrap;fontSize=12;fontStyle=0;shape=mxgraph.aws4.group;grIcon=mxgraph.aws4.group_corporate_data_center;strokeColor=#5A6C86;fillColor=none;verticalAlign=top;align=left;spacingLeft=30;fontColor=#5A6C86;dashed=0;" parent="1" vertex="1">
          <mxGeometry x="459" y="112" width="271" height="270" as="geometry" />
        </mxCell>
        <mxCell id="-Fwa0vPbUQEvVlFkUtLG-34" value="AWS Cloud" style="points=[[0,0],[0.25,0],[0.5,0],[0.75,0],[1,0],[1,0.25],[1,0.5],[1,0.75],[1,1],[0.75,1],[0.5,1],[0.25,1],[0,1],[0,0.75],[0,0.5],[0,0.25]];outlineConnect=0;gradientColor=none;html=1;whiteSpace=wrap;fontSize=12;fontStyle=0;shape=mxgraph.aws4.group;grIcon=mxgraph.aws4.group_aws_cloud_alt;strokeColor=#232F3E;fillColor=none;verticalAlign=top;align=left;spacingLeft=30;fontColor=#232F3E;dashed=0;" parent="1" vertex="1">
          <mxGeometry x="780" y="112" width="280" height="270" as="geometry" />
        </mxCell>
        <mxCell id="-Fwa0vPbUQEvVlFkUtLG-38" value="" style="aspect=fixed;html=1;points=[];align=center;image;fontSize=12;image=img/lib/mscae/App_Service_Mobile_App.svg;" parent="1" vertex="1">
          <mxGeometry x="243" y="10" width="34" height="50" as="geometry" />
        </mxCell>
        <mxCell id="-Fwa0vPbUQEvVlFkUtLG-40" value="API REST" style="rounded=1;whiteSpace=wrap;html=1;align=center;" parent="1" vertex="1">
          <mxGeometry x="145" y="152" width="230" height="50" as="geometry" />
        </mxCell>
        <mxCell id="-Fwa0vPbUQEvVlFkUtLG-55" value="" style="group" parent="1" vertex="1" connectable="0">
          <mxGeometry x="145" y="232" width="230" height="120" as="geometry" />
        </mxCell>
        <mxCell id="-Fwa0vPbUQEvVlFkUtLG-50" value="" style="rounded=1;whiteSpace=wrap;html=1;align=center;" parent="-Fwa0vPbUQEvVlFkUtLG-55" vertex="1">
          <mxGeometry width="230" height="120" as="geometry" />
        </mxCell>
        <mxCell id="-Fwa0vPbUQEvVlFkUtLG-43" value="" style="outlineConnect=0;dashed=0;verticalLabelPosition=bottom;verticalAlign=top;align=center;html=1;shape=mxgraph.aws3.android;fillColor=#8CC64F;gradientColor=none;" parent="-Fwa0vPbUQEvVlFkUtLG-55" vertex="1">
          <mxGeometry x="32" y="40" width="42" height="40" as="geometry" />
        </mxCell>
        <mxCell id="-Fwa0vPbUQEvVlFkUtLG-44" value="" style="outlineConnect=0;fontColor=#232F3E;gradientColor=#F34482;gradientDirection=north;fillColor=#BC1356;strokeColor=#ffffff;dashed=0;verticalLabelPosition=bottom;verticalAlign=top;align=center;html=1;fontSize=12;fontStyle=0;aspect=fixed;shape=mxgraph.aws4.resourceIcon;resIcon=mxgraph.aws4.app_config;" parent="-Fwa0vPbUQEvVlFkUtLG-55" vertex="1">
          <mxGeometry x="135" y="40" width="40" height="40" as="geometry" />
        </mxCell>
        <mxCell id="-Fwa0vPbUQEvVlFkUtLG-45" value="Fabtic SDK" style="text;html=1;strokeColor=none;fillColor=none;align=center;verticalAlign=middle;whiteSpace=wrap;rounded=0;" parent="-Fwa0vPbUQEvVlFkUtLG-55" vertex="1">
          <mxGeometry x="13" y="90" width="80" height="20" as="geometry" />
        </mxCell>
        <mxCell id="-Fwa0vPbUQEvVlFkUtLG-46" value="Connection Profile" style="text;html=1;strokeColor=none;fillColor=none;align=center;verticalAlign=middle;whiteSpace=wrap;rounded=0;" parent="-Fwa0vPbUQEvVlFkUtLG-55" vertex="1">
          <mxGeometry x="115" y="90" width="80" height="20" as="geometry" />
        </mxCell>
        <mxCell id="-Fwa0vPbUQEvVlFkUtLG-51" value="Capa Cliente Fabric" style="text;html=1;strokeColor=none;fillColor=none;align=center;verticalAlign=middle;whiteSpace=wrap;rounded=0;" parent="-Fwa0vPbUQEvVlFkUtLG-55" vertex="1">
          <mxGeometry x="40" y="5" width="160" height="20" as="geometry" />
        </mxCell>
        <mxCell id="-Fwa0vPbUQEvVlFkUtLG-52" value="" style="outlineConnect=0;fontColor=#232F3E;gradientColor=none;fillColor=#D05C17;strokeColor=none;dashed=0;verticalLabelPosition=bottom;verticalAlign=top;align=center;html=1;fontSize=12;fontStyle=0;aspect=fixed;shape=mxgraph.aws4.blockchain_resource;" parent="-Fwa0vPbUQEvVlFkUtLG-55" vertex="1">
          <mxGeometry x="13" y="8.5" width="44.09" height="13" as="geometry" />
        </mxCell>
        <mxCell id="-Fwa0vPbUQEvVlFkUtLG-56" value="" style="group" parent="1" vertex="1" connectable="0">
          <mxGeometry x="479" y="232" width="230" height="120" as="geometry" />
        </mxCell>
        <mxCell id="-Fwa0vPbUQEvVlFkUtLG-57" value="" style="rounded=1;whiteSpace=wrap;html=1;align=center;" parent="-Fwa0vPbUQEvVlFkUtLG-56" vertex="1">
          <mxGeometry width="230" height="120" as="geometry" />
        </mxCell>
        <mxCell id="-Fwa0vPbUQEvVlFkUtLG-58" value="" style="outlineConnect=0;dashed=0;verticalLabelPosition=bottom;verticalAlign=top;align=center;html=1;shape=mxgraph.aws3.android;fillColor=#8CC64F;gradientColor=none;" parent="-Fwa0vPbUQEvVlFkUtLG-56" vertex="1">
          <mxGeometry x="32" y="40" width="42" height="40" as="geometry" />
        </mxCell>
        <mxCell id="-Fwa0vPbUQEvVlFkUtLG-59" value="" style="outlineConnect=0;fontColor=#232F3E;gradientColor=#F34482;gradientDirection=north;fillColor=#BC1356;strokeColor=#ffffff;dashed=0;verticalLabelPosition=bottom;verticalAlign=top;align=center;html=1;fontSize=12;fontStyle=0;aspect=fixed;shape=mxgraph.aws4.resourceIcon;resIcon=mxgraph.aws4.app_config;" parent="-Fwa0vPbUQEvVlFkUtLG-56" vertex="1">
          <mxGeometry x="135" y="40" width="40" height="40" as="geometry" />
        </mxCell>
        <mxCell id="-Fwa0vPbUQEvVlFkUtLG-60" value="Fabtic SDK" style="text;html=1;strokeColor=none;fillColor=none;align=center;verticalAlign=middle;whiteSpace=wrap;rounded=0;" parent="-Fwa0vPbUQEvVlFkUtLG-56" vertex="1">
          <mxGeometry x="13" y="90" width="80" height="20" as="geometry" />
        </mxCell>
        <mxCell id="-Fwa0vPbUQEvVlFkUtLG-61" value="Connection Profile" style="text;html=1;strokeColor=none;fillColor=none;align=center;verticalAlign=middle;whiteSpace=wrap;rounded=0;" parent="-Fwa0vPbUQEvVlFkUtLG-56" vertex="1">
          <mxGeometry x="115" y="90" width="80" height="20" as="geometry" />
        </mxCell>
        <mxCell id="-Fwa0vPbUQEvVlFkUtLG-62" value="Capa Cliente Fabric" style="text;html=1;strokeColor=none;fillColor=none;align=center;verticalAlign=middle;whiteSpace=wrap;rounded=0;" parent="-Fwa0vPbUQEvVlFkUtLG-56" vertex="1">
          <mxGeometry x="40" y="5" width="160" height="20" as="geometry" />
        </mxCell>
        <mxCell id="-Fwa0vPbUQEvVlFkUtLG-63" value="" style="outlineConnect=0;fontColor=#232F3E;gradientColor=none;fillColor=#D05C17;strokeColor=none;dashed=0;verticalLabelPosition=bottom;verticalAlign=top;align=center;html=1;fontSize=12;fontStyle=0;aspect=fixed;shape=mxgraph.aws4.blockchain_resource;" parent="-Fwa0vPbUQEvVlFkUtLG-56" vertex="1">
          <mxGeometry x="13" y="8.5" width="44.09" height="13" as="geometry" />
        </mxCell>
        <mxCell id="-Fwa0vPbUQEvVlFkUtLG-64" value="" style="group" parent="1" vertex="1" connectable="0">
          <mxGeometry x="805" y="232" width="230" height="120" as="geometry" />
        </mxCell>
        <mxCell id="-Fwa0vPbUQEvVlFkUtLG-65" value="" style="rounded=1;whiteSpace=wrap;html=1;align=center;" parent="-Fwa0vPbUQEvVlFkUtLG-64" vertex="1">
          <mxGeometry width="230" height="120" as="geometry" />
        </mxCell>
        <mxCell id="-Fwa0vPbUQEvVlFkUtLG-66" value="" style="outlineConnect=0;dashed=0;verticalLabelPosition=bottom;verticalAlign=top;align=center;html=1;shape=mxgraph.aws3.android;fillColor=#8CC64F;gradientColor=none;" parent="-Fwa0vPbUQEvVlFkUtLG-64" vertex="1">
          <mxGeometry x="32" y="40" width="42" height="40" as="geometry" />
        </mxCell>
        <mxCell id="-Fwa0vPbUQEvVlFkUtLG-67" value="" style="outlineConnect=0;fontColor=#232F3E;gradientColor=#F34482;gradientDirection=north;fillColor=#BC1356;strokeColor=#ffffff;dashed=0;verticalLabelPosition=bottom;verticalAlign=top;align=center;html=1;fontSize=12;fontStyle=0;aspect=fixed;shape=mxgraph.aws4.resourceIcon;resIcon=mxgraph.aws4.app_config;" parent="-Fwa0vPbUQEvVlFkUtLG-64" vertex="1">
          <mxGeometry x="135" y="40" width="40" height="40" as="geometry" />
        </mxCell>
        <mxCell id="-Fwa0vPbUQEvVlFkUtLG-68" value="Fabtic SDK" style="text;html=1;strokeColor=none;fillColor=none;align=center;verticalAlign=middle;whiteSpace=wrap;rounded=0;" parent="-Fwa0vPbUQEvVlFkUtLG-64" vertex="1">
          <mxGeometry x="13" y="90" width="80" height="20" as="geometry" />
        </mxCell>
        <mxCell id="-Fwa0vPbUQEvVlFkUtLG-69" value="Connection Profile" style="text;html=1;strokeColor=none;fillColor=none;align=center;verticalAlign=middle;whiteSpace=wrap;rounded=0;" parent="-Fwa0vPbUQEvVlFkUtLG-64" vertex="1">
          <mxGeometry x="115" y="90" width="80" height="20" as="geometry" />
        </mxCell>
        <mxCell id="-Fwa0vPbUQEvVlFkUtLG-70" value="Capa Cliente Fabric" style="text;html=1;strokeColor=none;fillColor=none;align=center;verticalAlign=middle;whiteSpace=wrap;rounded=0;" parent="-Fwa0vPbUQEvVlFkUtLG-64" vertex="1">
          <mxGeometry x="40" y="5" width="160" height="20" as="geometry" />
        </mxCell>
        <mxCell id="-Fwa0vPbUQEvVlFkUtLG-71" value="" style="outlineConnect=0;fontColor=#232F3E;gradientColor=none;fillColor=#D05C17;strokeColor=none;dashed=0;verticalLabelPosition=bottom;verticalAlign=top;align=center;html=1;fontSize=12;fontStyle=0;aspect=fixed;shape=mxgraph.aws4.blockchain_resource;" parent="-Fwa0vPbUQEvVlFkUtLG-64" vertex="1">
          <mxGeometry x="13" y="8.5" width="44.09" height="13" as="geometry" />
        </mxCell>
        <mxCell id="-Fwa0vPbUQEvVlFkUtLG-73" value="API REST" style="rounded=1;whiteSpace=wrap;html=1;align=center;" parent="1" vertex="1">
          <mxGeometry x="805" y="152" width="230" height="50" as="geometry" />
        </mxCell>
        <mxCell id="-Fwa0vPbUQEvVlFkUtLG-74" value="API REST" style="rounded=1;whiteSpace=wrap;html=1;align=center;" parent="1" vertex="1">
          <mxGeometry x="479.5" y="152" width="230" height="50" as="geometry" />
        </mxCell>
        <mxCell id="-Fwa0vPbUQEvVlFkUtLG-75" value="" style="outlineConnect=0;fontColor=#232F3E;gradientColor=#945DF2;gradientDirection=north;fillColor=#5A30B5;strokeColor=#ffffff;dashed=0;verticalLabelPosition=bottom;verticalAlign=top;align=center;html=1;fontSize=12;fontStyle=0;aspect=fixed;shape=mxgraph.aws4.resourceIcon;resIcon=mxgraph.aws4.vpc;" parent="1" vertex="1">
          <mxGeometry x="575" y="460" width="38" height="38" as="geometry" />
        </mxCell>
        <mxCell id="-Fwa0vPbUQEvVlFkUtLG-77" value="" style="outlineConnect=0;fontColor=#232F3E;gradientColor=none;fillColor=#5A30B5;strokeColor=none;dashed=0;verticalLabelPosition=bottom;verticalAlign=top;align=center;html=1;fontSize=12;fontStyle=0;aspect=fixed;pointerEvents=1;shape=mxgraph.aws4.endpoints;" parent="1" vertex="1">
          <mxGeometry x="236" y="362" width="38" height="38" as="geometry" />
        </mxCell>
        <mxCell id="-Fwa0vPbUQEvVlFkUtLG-79" value="" style="outlineConnect=0;fontColor=#232F3E;gradientColor=none;fillColor=#5A30B5;strokeColor=none;dashed=0;verticalLabelPosition=bottom;verticalAlign=top;align=center;html=1;fontSize=12;fontStyle=0;aspect=fixed;pointerEvents=1;shape=mxgraph.aws4.endpoints;" parent="1" vertex="1">
          <mxGeometry x="901" y="362" width="38" height="38" as="geometry" />
        </mxCell>
        <mxCell id="-Fwa0vPbUQEvVlFkUtLG-83" value="" style="edgeStyle=orthogonalEdgeStyle;html=1;endArrow=open;elbow=vertical;startArrow=open;startFill=0;endFill=0;strokeColor=#545B64;rounded=0;" parent="1" source="-Fwa0vPbUQEvVlFkUtLG-77" target="-Fwa0vPbUQEvVlFkUtLG-75" edge="1">
          <mxGeometry width="100" relative="1" as="geometry">
            <mxPoint x="490" y="270" as="sourcePoint" />
            <mxPoint x="450" y="400" as="targetPoint" />
            <Array as="points">
              <mxPoint x="255" y="420" />
              <mxPoint x="594" y="420" />
            </Array>
          </mxGeometry>
        </mxCell>
        <mxCell id="-Fwa0vPbUQEvVlFkUtLG-86" value="" style="edgeStyle=orthogonalEdgeStyle;html=1;endArrow=open;elbow=vertical;startArrow=open;startFill=0;endFill=0;strokeColor=#545B64;rounded=0;entryX=0.491;entryY=-0.033;entryDx=0;entryDy=0;entryPerimeter=0;" parent="1" target="-Fwa0vPbUQEvVlFkUtLG-75" edge="1">
          <mxGeometry width="100" relative="1" as="geometry">
            <mxPoint x="593.9999999999998" y="388" as="sourcePoint" />
            <mxPoint x="690" y="510" as="targetPoint" />
          </mxGeometry>
        </mxCell>
        <mxCell id="-Fwa0vPbUQEvVlFkUtLG-87" value="" style="edgeStyle=orthogonalEdgeStyle;html=1;endArrow=open;elbow=vertical;startArrow=open;startFill=0;endFill=0;strokeColor=#545B64;rounded=0;" parent="1" source="-Fwa0vPbUQEvVlFkUtLG-75" target="-Fwa0vPbUQEvVlFkUtLG-79" edge="1">
          <mxGeometry width="100" relative="1" as="geometry">
            <mxPoint x="590" y="510" as="sourcePoint" />
            <mxPoint x="690" y="510" as="targetPoint" />
            <Array as="points">
              <mxPoint x="594" y="420" />
              <mxPoint x="920" y="420" />
            </Array>
          </mxGeometry>
        </mxCell>
        <mxCell id="-Fwa0vPbUQEvVlFkUtLG-88" value="" style="outlineConnect=0;fontColor=#232F3E;gradientColor=none;fillColor=#5A30B5;strokeColor=none;dashed=0;verticalLabelPosition=bottom;verticalAlign=top;align=center;html=1;fontSize=12;fontStyle=0;aspect=fixed;pointerEvents=1;shape=mxgraph.aws4.vpn_connection;" parent="1" vertex="1">
          <mxGeometry x="577.45" y="362" width="34.1" height="38" as="geometry" />
        </mxCell>
        <mxCell id="-Fwa0vPbUQEvVlFkUtLG-90" value="" style="endArrow=classic;startArrow=classic;html=1;entryX=0.5;entryY=0;entryDx=0;entryDy=0;" parent="1" source="-Fwa0vPbUQEvVlFkUtLG-38" target="-Fwa0vPbUQEvVlFkUtLG-40" edge="1">
          <mxGeometry width="50" height="50" relative="1" as="geometry">
            <mxPoint x="530" y="350" as="sourcePoint" />
            <mxPoint x="580" y="300" as="targetPoint" />
          </mxGeometry>
        </mxCell>
        <mxCell id="-Fwa0vPbUQEvVlFkUtLG-91" value="" style="edgeStyle=orthogonalEdgeStyle;html=1;endArrow=open;elbow=vertical;startArrow=open;startFill=0;endFill=0;strokeColor=#545B64;rounded=0;exitX=0.5;exitY=1;exitDx=0;exitDy=0;" parent="1" source="-Fwa0vPbUQEvVlFkUtLG-40" edge="1">
          <mxGeometry width="100" relative="1" as="geometry">
            <mxPoint x="500" y="342" as="sourcePoint" />
            <mxPoint x="260" y="232" as="targetPoint" />
          </mxGeometry>
        </mxCell>
        <mxCell id="-Fwa0vPbUQEvVlFkUtLG-96" value="" style="edgeStyle=orthogonalEdgeStyle;html=1;endArrow=open;elbow=vertical;startArrow=open;startFill=0;endFill=0;strokeColor=#545B64;rounded=0;exitX=0.5;exitY=1;exitDx=0;exitDy=0;" parent="1" edge="1">
          <mxGeometry width="100" relative="1" as="geometry">
            <mxPoint x="600" y="202" as="sourcePoint" />
            <mxPoint x="600" y="232" as="targetPoint" />
          </mxGeometry>
        </mxCell>
        <mxCell id="-Fwa0vPbUQEvVlFkUtLG-97" value="" style="edgeStyle=orthogonalEdgeStyle;html=1;endArrow=open;elbow=vertical;startArrow=open;startFill=0;endFill=0;strokeColor=#545B64;rounded=0;exitX=0.5;exitY=1;exitDx=0;exitDy=0;" parent="1" edge="1">
          <mxGeometry width="100" relative="1" as="geometry">
            <mxPoint x="920" y="202" as="sourcePoint" />
            <mxPoint x="920" y="232" as="targetPoint" />
          </mxGeometry>
        </mxCell>
        <mxCell id="-Fwa0vPbUQEvVlFkUtLG-99" value="" style="endArrow=classic;startArrow=classic;html=1;entryX=0.572;entryY=1.022;entryDx=0;entryDy=0;entryPerimeter=0;" parent="1" source="-Fwa0vPbUQEvVlFkUtLG-74" edge="1">
          <mxGeometry width="50" height="50" relative="1" as="geometry">
            <mxPoint x="1000" y="50" as="sourcePoint" />
            <mxPoint x="595.4479999999999" y="61.09999999999991" as="targetPoint" />
          </mxGeometry>
        </mxCell>
        <mxCell id="-Fwa0vPbUQEvVlFkUtLG-100" value="Infraestructura Criadero" style="text;html=1;strokeColor=none;fillColor=none;align=left;verticalAlign=middle;whiteSpace=wrap;rounded=0;fontStyle=1" parent="1" vertex="1">
          <mxGeometry x="460" y="92" width="239" height="20" as="geometry" />
        </mxCell>
        <mxCell id="-Fwa0vPbUQEvVlFkUtLG-101" value="Infraestructura Distribuidor" style="text;html=1;strokeColor=none;fillColor=none;align=left;verticalAlign=middle;whiteSpace=wrap;rounded=0;fontStyle=1" parent="1" vertex="1">
          <mxGeometry x="780" y="92" width="245" height="20" as="geometry" />
        </mxCell>
        <mxCell id="-Fwa0vPbUQEvVlFkUtLG-102" value="AWS VPC Private Link" style="text;html=1;strokeColor=none;fillColor=none;align=center;verticalAlign=middle;whiteSpace=wrap;rounded=0;" parent="1" vertex="1">
          <mxGeometry x="613" y="450" width="80" height="20" as="geometry" />
        </mxCell>
        <mxCell id="-Fwa0vPbUQEvVlFkUtLG-104" value="VPC Endpoint" style="text;html=1;strokeColor=none;fillColor=none;align=center;verticalAlign=middle;whiteSpace=wrap;rounded=0;" parent="1" vertex="1">
          <mxGeometry x="940" y="362" width="80" height="20" as="geometry" />
        </mxCell>
        <mxCell id="-Fwa0vPbUQEvVlFkUtLG-105" value="VPC Endpoint" style="text;html=1;strokeColor=none;fillColor=none;align=center;verticalAlign=middle;whiteSpace=wrap;rounded=0;" parent="1" vertex="1">
          <mxGeometry x="280" y="362" width="80" height="20" as="geometry" />
        </mxCell>
        <mxCell id="-Fwa0vPbUQEvVlFkUtLG-106" value="VPN Endpoint" style="text;html=1;strokeColor=none;fillColor=none;align=center;verticalAlign=middle;whiteSpace=wrap;rounded=0;" parent="1" vertex="1">
          <mxGeometry x="622.5" y="362" width="87" height="20" as="geometry" />
        </mxCell>
        <mxCell id="-Fwa0vPbUQEvVlFkUtLG-107" value="Consumidor" style="text;html=1;strokeColor=none;fillColor=none;align=center;verticalAlign=middle;whiteSpace=wrap;rounded=0;" parent="1" vertex="1">
          <mxGeometry x="180" y="25" width="40" height="20" as="geometry" />
        </mxCell>
        <mxCell id="s21eSt1wn9aEw8yrep5h-6" value="" style="group" vertex="1" connectable="0" parent="1">
          <mxGeometry x="890" y="560" width="170" height="110" as="geometry" />
        </mxCell>
        <mxCell id="s21eSt1wn9aEw8yrep5h-7" value="" style="rounded=0;whiteSpace=wrap;html=1;align=left;" vertex="1" parent="s21eSt1wn9aEw8yrep5h-6">
          <mxGeometry width="170" height="110" as="geometry" />
        </mxCell>
        <mxCell id="s21eSt1wn9aEw8yrep5h-8" value="CDistribucion MSP" style="text;html=1;strokeColor=none;fillColor=none;align=center;verticalAlign=middle;whiteSpace=wrap;rounded=0;" vertex="1" parent="s21eSt1wn9aEw8yrep5h-6">
          <mxGeometry x="30" width="120" height="20" as="geometry" />
        </mxCell>
        <mxCell id="s21eSt1wn9aEw8yrep5h-9" value="Fabric CA Authority" style="rounded=0;whiteSpace=wrap;html=1;align=center;fillColor=#cdeb8b;strokeColor=#36393d;" vertex="1" parent="s21eSt1wn9aEw8yrep5h-6">
          <mxGeometry x="31.315789473684212" y="31" width="107.36842105263158" height="30" as="geometry" />
        </mxCell>
        <mxCell id="s21eSt1wn9aEw8yrep5h-10" value="Peer Node" style="rounded=0;whiteSpace=wrap;html=1;align=center;fillColor=#cdeb8b;strokeColor=#36393d;" vertex="1" parent="s21eSt1wn9aEw8yrep5h-6">
          <mxGeometry x="31.315789473684212" y="68" width="107.36842105263158" height="30" as="geometry" />
        </mxCell>
        <mxCell id="xjXCA4nqGSD4v4mPtyrm-1" value="Operador" style="text;html=1;strokeColor=none;fillColor=none;align=center;verticalAlign=middle;whiteSpace=wrap;rounded=0;" vertex="1" parent="1">
          <mxGeometry x="510" y="25" width="40" height="20" as="geometry" />
        </mxCell>
        <mxCell id="xjXCA4nqGSD4v4mPtyrm-3" value="" style="aspect=fixed;html=1;points=[];align=center;image;fontSize=12;image=img/lib/mscae/App_Service_Mobile_App.svg;" vertex="1" parent="1">
          <mxGeometry x="901" y="10" width="34" height="50" as="geometry" />
        </mxCell>
        <mxCell id="xjXCA4nqGSD4v4mPtyrm-5" value="Transporte" style="text;html=1;strokeColor=none;fillColor=none;align=center;verticalAlign=middle;whiteSpace=wrap;rounded=0;" vertex="1" parent="1">
          <mxGeometry x="830" y="25" width="40" height="20" as="geometry" />
        </mxCell>
        <mxCell id="xjXCA4nqGSD4v4mPtyrm-8" value="" style="endArrow=classic;startArrow=classic;html=1;entryX=0.556;entryY=1.089;entryDx=0;entryDy=0;entryPerimeter=0;exitX=0.5;exitY=0;exitDx=0;exitDy=0;" edge="1" parent="1" source="-Fwa0vPbUQEvVlFkUtLG-73" target="xjXCA4nqGSD4v4mPtyrm-3">
          <mxGeometry width="50" height="50" relative="1" as="geometry">
            <mxPoint x="979.1644866264023" y="162" as="sourcePoint" />
            <mxPoint x="979.9079999999999" y="71.09999999999991" as="targetPoint" />
          </mxGeometry>
        </mxCell>
        <mxCell id="xjXCA4nqGSD4v4mPtyrm-13" value="" style="verticalLabelPosition=bottom;html=1;verticalAlign=top;align=center;strokeColor=none;fillColor=#00BEF2;shape=mxgraph.azure.website_generic;pointerEvents=1;" vertex="1" parent="1">
          <mxGeometry x="575" y="13.75" width="50" height="42.5" as="geometry" />
        </mxCell>
      </root>
    </mxGraphModel>
  </diagram>
  <diagram id="qGLn1z04eAX1R8JOLs9Q" name="Smart Contract">
    <mxGraphModel dx="942" dy="627" grid="1" gridSize="10" guides="1" tooltips="1" connect="1" arrows="1" fold="1" page="1" pageScale="1" pageWidth="1169" pageHeight="827" math="0" shadow="0">
      <root>
        <mxCell id="BVQQjjN4b8m3aSFn7_dt-0" />
        <mxCell id="BVQQjjN4b8m3aSFn7_dt-1" parent="BVQQjjN4b8m3aSFn7_dt-0" />
        <mxCell id="BVQQjjN4b8m3aSFn7_dt-5" value="Cowtracker" style="swimlane;fontStyle=1;align=center;verticalAlign=top;childLayout=stackLayout;horizontal=1;startSize=26;horizontalStack=0;resizeParent=1;resizeParentMax=0;resizeLast=0;collapsible=1;marginBottom=0;fontSize=14;" parent="BVQQjjN4b8m3aSFn7_dt-1" vertex="1">
          <mxGeometry x="110" y="60" width="220" height="86" as="geometry" />
        </mxCell>
        <mxCell id="BVQQjjN4b8m3aSFn7_dt-6" value="+ Rup: String&#xa;+ IdCriadero : String&#xa;" style="text;strokeColor=none;fillColor=none;align=left;verticalAlign=top;spacingLeft=4;spacingRight=4;overflow=hidden;rotatable=0;points=[[0,0.5],[1,0.5]];portConstraint=eastwest;" parent="BVQQjjN4b8m3aSFn7_dt-5" vertex="1">
          <mxGeometry y="26" width="220" height="26" as="geometry" />
        </mxCell>
        <mxCell id="BVQQjjN4b8m3aSFn7_dt-7" value="" style="line;strokeWidth=1;fillColor=none;align=left;verticalAlign=middle;spacingTop=-1;spacingLeft=3;spacingRight=3;rotatable=0;labelPosition=right;points=[];portConstraint=eastwest;" parent="BVQQjjN4b8m3aSFn7_dt-5" vertex="1">
          <mxGeometry y="52" width="220" height="8" as="geometry" />
        </mxCell>
        <mxCell id="BVQQjjN4b8m3aSFn7_dt-8" value="+ method(type): type" style="text;strokeColor=none;fillColor=none;align=left;verticalAlign=top;spacingLeft=4;spacingRight=4;overflow=hidden;rotatable=0;points=[[0,0.5],[1,0.5]];portConstraint=eastwest;" parent="BVQQjjN4b8m3aSFn7_dt-5" vertex="1">
          <mxGeometry y="60" width="220" height="26" as="geometry" />
        </mxCell>
      </root>
    </mxGraphModel>
  </diagram>
</mxfile>
